<?xml version="1.0" standalone="no"?>
<!DOCTYPE svg PUBLIC "-//W3C//DTD SVG 20010904//EN"
 "http://www.w3.org/TR/2001/REC-SVG-20010904/DTD/svg10.dtd">
<svg version="1.0" xmlns="http://www.w3.org/2000/svg"
 width="1366.000000pt" height="392.000000pt" viewBox="0 0 1366.000000 392.000000"
 preserveAspectRatio="xMidYMid meet">

<g transform="translate(0.000000,392.000000) scale(0.100000,-0.100000)"
fill="#000000" stroke="none">
<path d="M1818 3816 c-96 -15 -256 -53 -277 -66 -11 -6 -4 -24 31 -81 l44 -74
56 -1 c68 -2 111 -24 146 -74 15 -22 32 -39 38 -40 6 0 123 26 260 59 137 32
263 62 280 65 27 6 32 13 38 44 12 76 98 122 164 88 46 -24 67 -61 67 -120 l0
-50 289 -246 289 -247 44 25 c60 33 135 28 189 -13 l38 -29 -44 64 c-57 80
-219 250 -307 323 -214 173 -477 298 -758 357 -128 27 -454 36 -587 16z"/>
<path d="M1379 3691 c-216 -94 -368 -200 -546 -378 -73 -73 -133 -136 -133
-141 0 -4 16 -6 35 -4 42 5 90 -13 109 -40 13 -18 28 -13 335 109 l321 128 0
48 c0 55 27 116 64 143 l26 19 -46 78 c-29 48 -52 77 -63 76 -9 0 -55 -17
-102 -38z"/>
<path d="M2165 3516 c-143 -34 -272 -65 -287 -69 -24 -6 -28 -13 -28 -43 0
-19 -4 -43 -9 -53 -9 -15 22 -39 216 -170 206 -140 227 -152 250 -142 13 6 32
11 43 11 10 0 21 8 24 18 25 85 116 433 116 444 0 13 -50 69 -61 67 -2 0 -121
-29 -264 -63z"/>
<path d="M2612 3532 c-12 -8 -36 -17 -54 -21 l-31 -6 -58 -215 c-32 -118 -59
-222 -59 -231 0 -9 11 -24 23 -32 13 -9 30 -29 37 -46 l12 -31 262 1 c143 1
303 4 354 8 l94 6 14 40 c7 22 14 41 14 42 0 1 -107 93 -237 204 -131 111
-263 224 -293 250 -52 44 -56 46 -78 31z"/>
<path d="M1192 3207 l-322 -129 0 -33 c0 -18 -8 -43 -19 -56 l-18 -24 172
-203 c95 -111 175 -205 178 -208 3 -4 20 4 36 15 17 12 59 35 94 51 l63 28
107 294 c58 161 107 298 109 303 1 6 -16 28 -38 50 l-39 41 -323 -129z"/>
<path d="M1785 3280 c-23 -25 -78 -43 -120 -38 l-34 4 -105 -288 c-58 -158
-106 -290 -106 -293 0 -3 39 -5 88 -5 89 0 140 -9 203 -36 l35 -15 246 153
245 153 11 45 c6 25 7 47 3 50 -254 172 -432 290 -439 290 -5 0 -17 -9 -27
-20z"/>
<path d="M4201 3083 l-22 -18 4 -595 c4 -656 5 -671 69 -800 57 -117 153 -190
305 -232 76 -22 96 -22 696 -26 463 -2 622 0 633 9 20 16 20 301 1 317 -9 8
-193 12 -583 14 l-569 3 -60 30 c-53 27 -63 37 -90 90 l-30 60 -5 572 c-3 314
-9 575 -13 580 -5 4 -77 9 -161 11 -136 3 -155 1 -175 -15z"/>
<path d="M6150 3093 c-8 -3 -18 -11 -22 -17 -4 -6 -8 -378 -8 -827 0 -621 3
-818 12 -827 8 -8 61 -12 175 -12 150 0 163 1 173 19 7 13 10 290 10 830 l0
810 -22 15 c-18 13 -51 16 -163 15 -77 0 -147 -3 -155 -6z"/>
<path d="M7320 3090 c-269 -25 -424 -129 -489 -327 -35 -108 -43 -239 -39
-580 5 -282 7 -327 26 -395 53 -196 153 -295 349 -350 75 -21 98 -22 630 -26
464 -3 567 -1 642 12 244 42 368 151 423 369 21 87 22 110 22 457 0 410 -5
457 -69 587 -76 155 -216 230 -468 253 -121 11 -905 11 -1027 0z m1044 -353
c63 -21 111 -68 133 -131 16 -44 18 -90 18 -351 0 -317 -4 -350 -47 -416 -13
-19 -45 -45 -73 -59 l-50 -25 -483 -3 c-535 -3 -558 -1 -626 58 -66 59 -70 80
-74 412 -4 385 10 448 110 499 65 33 139 37 603 35 376 -2 447 -5 489 -19z"/>
<path d="M9333 3090 c-58 -12 -90 -36 -116 -84 l-22 -41 -3 -764 c-2 -572 0
-767 9 -777 10 -12 45 -14 178 -12 l166 3 5 660 c3 363 6 661 8 663 1 1 15 2
30 2 26 0 73 -60 515 -644 397 -525 493 -647 524 -662 34 -17 62 -19 263 -19
222 0 225 0 259 24 18 13 43 45 55 70 21 45 21 55 24 801 l3 755 -22 18 c-18
14 -43 17 -164 17 -121 0 -146 -3 -164 -17 -21 -18 -21 -19 -24 -668 l-2 -650
-28 0 c-25 0 -75 63 -510 640 -450 597 -485 642 -532 665 -46 23 -61 24 -230
27 -99 1 -199 -2 -222 -7z"/>
<path d="M12053 3089 c-287 -27 -439 -144 -500 -386 -15 -58 -18 -120 -18
-443 0 -324 2 -385 18 -450 48 -206 152 -316 354 -372 76 -22 94 -22 731 -26
489 -2 657 0 668 9 11 9 14 44 14 160 0 136 -2 149 -19 159 -13 6 -222 10
-609 10 -510 0 -596 2 -642 16 -103 30 -150 113 -150 261 l0 73 689 0 c614 0
691 2 705 16 23 23 23 265 0 288 -14 14 -91 16 -705 16 l-689 0 0 70 c0 128
47 212 139 247 42 15 105 17 651 21 405 2 609 7 617 14 10 8 13 51 13 159 0
136 -2 149 -19 159 -23 12 -1120 12 -1248 -1z"/>
<path d="M580 2995 c-142 -235 -225 -499 -246 -779 l-7 -96 24 0 c71 0 129 13
129 29 0 32 41 83 79 98 l38 15 57 340 56 340 -26 21 c-31 24 -57 79 -48 101
15 38 -9 9 -56 -69z"/>
<path d="M3543 2983 c8 -32 8 -51 -2 -84 -13 -41 -63 -101 -105 -124 -18 -10
-17 -20 23 -257 22 -136 41 -249 41 -252 0 -4 7 -6 16 -6 50 0 114 -60 114
-108 0 -17 10 -21 77 -28 63 -7 78 -12 81 -27 4 -20 3 -20 -130 -1 -31 5 -37
2 -43 -16 -8 -27 -61 -60 -95 -60 -24 0 -27 -6 -63 -146 l-38 -145 45 -50 c55
-62 111 -144 152 -228 l32 -64 15 29 c8 16 31 77 50 134 116 346 116 741 1
1090 -33 99 -135 321 -167 365 -14 18 -15 16 -4 -22z"/>
<path d="M775 2941 l-30 -6 -51 -305 c-29 -168 -55 -321 -58 -341 -5 -31 -3
-37 19 -47 14 -7 35 -28 47 -48 l21 -36 101 6 c56 4 119 9 142 12 l40 6 11 61
c14 84 49 161 100 224 24 29 43 55 43 57 0 4 -349 419 -354 422 0 0 -14 -2
-31 -5z"/>
<path d="M2573 2913 c-91 -4 -93 -4 -108 -33 -8 -16 -23 -33 -32 -38 -15 -9
-12 -20 27 -110 l43 -99 51 13 c28 8 87 14 132 14 142 0 252 -46 355 -149 77
-77 125 -167 142 -264 12 -75 2 -69 150 -83 57 -5 67 -4 67 9 0 9 15 31 34 49
l34 33 -39 235 c-51 305 -44 280 -80 280 -58 0 -115 45 -144 113 l-15 37 -263
-2 c-144 -1 -304 -4 -354 -5z"/>
<path d="M2018 2741 c-119 -75 -220 -140 -225 -145 -4 -4 1 -14 12 -22 91 -66
168 -175 200 -288 25 -85 17 -230 -16 -312 l-25 -60 71 -46 72 -45 66 41 c49
30 65 45 60 56 -3 8 -17 44 -29 80 -28 76 -32 204 -10 286 32 119 124 243 224
301 26 14 49 28 51 30 2 1 -16 48 -40 103 -43 96 -45 100 -76 100 -21 0 -44
10 -66 30 -19 17 -39 30 -43 29 -5 0 -107 -62 -226 -138z"/>
<path d="M1379 2527 c-102 -43 -173 -110 -218 -206 -23 -49 -26 -68 -26 -161
0 -93 3 -112 26 -161 15 -31 43 -75 63 -97 l37 -40 -38 -12 c-61 -20 -173 -79
-238 -125 -69 -49 -177 -159 -224 -227 -49 -73 -108 -204 -132 -293 -32 -118
-32 -336 0 -455 105 -393 428 -661 836 -695 189 -16 438 56 597 172 l48 35 37
-30 c88 -68 228 -131 355 -157 92 -20 288 -19 386 1 267 55 504 240 627 489
75 152 90 223 89 415 0 150 -3 173 -27 253 -59 190 -165 350 -310 463 -66 51
-254 154 -282 154 -28 0 -26 22 6 57 17 21 44 62 58 93 23 48 26 68 26 155 0
92 -3 106 -32 167 -119 252 -455 306 -642 103 -134 -145 -142 -360 -20 -515
l40 -51 -31 -10 c-58 -21 -185 -87 -234 -122 l-49 -36 -37 29 c-49 39 -173
104 -238 125 l-53 17 37 40 c20 22 48 66 63 97 23 49 26 68 26 161 0 95 -3
111 -29 167 -34 74 -107 148 -187 189 -46 24 -68 28 -154 31 -87 3 -107 1
-156 -20z m1428 -128 c85 -41 153 -150 153 -244 0 -88 -51 -177 -128 -226 -43
-27 -53 -29 -147 -29 -108 0 -118 3 -184 64 -119 109 -104 319 29 411 83 58
189 67 277 24z m37 -674 c161 -33 289 -107 411 -236 120 -129 189 -289 202
-474 l6 -83 -37 -51 c-99 -135 -223 -183 -334 -130 -30 15 -174 149 -453 422
-225 221 -408 405 -406 410 5 15 125 85 186 108 128 48 293 61 425 34z m-1739
-505 c25 -12 201 -177 460 -430 231 -225 421 -413 423 -418 4 -13 -129 -89
-203 -115 -230 -81 -472 -54 -674 77 -229 148 -361 402 -349 672 4 91 5 95 38
130 104 108 200 135 305 84z"/>
<path d="M810 2131 c-79 -6 -100 -14 -100 -35 0 -7 -9 -21 -20 -31 -11 -10
-20 -22 -20 -27 0 -8 145 -264 156 -277 2 -3 17 7 32 21 33 31 137 102 175
119 32 15 32 11 7 76 -11 29 -23 77 -26 108 l-7 55 -61 -2 c-33 -1 -95 -4
-136 -7z"/>
<path d="M3186 2085 c-3 -30 -15 -78 -26 -106 -12 -28 -19 -52 -18 -54 2 -1
26 -14 53 -30 28 -15 83 -52 123 -82 48 -35 74 -49 77 -41 2 7 18 68 36 136
32 122 32 123 12 137 -11 8 -28 30 -36 48 -16 33 -18 34 -93 41 -129 10 -120
14 -128 -49z"/>
<path d="M420 2093 c-97 -14 -90 -10 -90 -56 0 -185 67 -466 158 -660 l46 -98
26 73 c41 118 103 221 203 340 l37 45 -80 139 -80 139 -48 7 c-37 5 -54 14
-78 42 -30 35 -40 38 -94 29z"/>
<path d="M4180 980 c0 -20 7 -20 4575 -20 4568 0 4575 0 4575 20 0 20 -7 20
-4575 20 -4568 0 -4575 0 -4575 -20z"/>
<path d="M4260 420 c0 -127 2 -150 15 -150 11 0 15 13 15 54 l0 54 55 4 c71 6
105 35 105 89 0 21 -3 45 -6 54 -11 27 -60 45 -124 45 l-60 0 0 -150z m142
103 c10 -9 18 -30 18 -49 0 -42 -30 -64 -87 -64 l-43 0 0 65 0 65 47 0 c29 0
53 -6 65 -17z"/>
<path d="M4638 554 c-49 -26 -75 -103 -59 -174 27 -118 170 -148 231 -47 41
67 18 192 -41 222 -36 19 -96 18 -131 -1z m128 -37 c32 -28 44 -108 24 -157
-37 -88 -158 -73 -179 23 -27 117 74 204 155 134z"/>
<path d="M4943 556 c4 -9 23 -77 43 -151 48 -174 58 -177 98 -27 37 137 41
145 53 101 73 -268 73 -268 130 -61 23 81 40 149 38 151 -2 2 -11 1 -18 -2 -9
-3 -26 -51 -43 -121 -15 -63 -31 -113 -34 -111 -4 2 -20 56 -36 120 -25 100
-31 115 -49 115 -18 0 -24 -13 -44 -97 -40 -165 -39 -165 -75 -28 -25 96 -35
121 -50 123 -14 3 -17 0 -13 -12z"/>
<path d="M5430 420 l0 -150 90 0 c73 0 90 3 90 15 0 12 -15 15 -75 15 l-75 0
0 55 0 55 70 0 c56 0 70 3 70 15 0 12 -14 15 -70 15 l-70 0 0 50 0 50 70 0
c56 0 70 3 70 15 0 12 -16 15 -85 15 l-85 0 0 -150z"/>
<path d="M5740 420 c0 -127 2 -150 15 -150 12 0 15 13 15 61 l0 60 42 -3 c39
-3 43 -6 72 -60 20 -36 38 -58 49 -58 22 0 22 1 -14 65 l-31 56 26 24 c26 24
35 71 20 110 -11 28 -60 45 -129 45 l-65 0 0 -150z m152 103 c25 -23 23 -68
-4 -87 -13 -9 -43 -16 -70 -16 l-48 0 0 60 0 60 52 0 c34 0 58 -6 70 -17z"/>
<path d="M6070 420 l0 -150 90 0 c73 0 90 3 90 15 0 12 -14 15 -70 15 l-70 0
0 55 0 55 65 0 c51 0 65 3 65 15 0 12 -14 15 -65 15 l-65 0 0 50 0 50 70 0
c56 0 70 3 70 15 0 12 -17 15 -90 15 l-90 0 0 -150z"/>
<path d="M6390 419 l0 -152 72 6 c81 7 113 25 140 78 38 72 12 169 -52 201
-22 12 -58 18 -97 18 l-63 0 0 -151z m160 94 c61 -55 47 -169 -24 -198 -20 -8
-51 -15 -71 -15 l-35 0 0 120 0 120 50 0 c40 0 56 -5 80 -27z"/>
<path d="M6930 419 l0 -152 82 6 c73 5 85 8 105 32 13 14 23 36 23 48 0 30
-27 67 -48 67 -14 0 -14 3 4 18 29 23 37 54 23 85 -16 34 -49 47 -124 47 l-65
0 0 -151z m156 96 c11 -16 11 -25 1 -45 -11 -21 -21 -25 -65 -28 l-52 -3 0 51
0 51 51 -3 c39 -2 55 -8 65 -23z m4 -125 c43 -43 15 -81 -64 -88 l-56 -4 0 56
0 56 50 0 c37 0 55 -5 70 -20z"/>
<path d="M7250 566 c0 -3 23 -41 50 -85 47 -75 50 -85 50 -146 0 -51 3 -65 15
-65 12 0 15 13 15 60 0 50 5 68 33 112 81 128 81 128 60 128 -13 0 -32 -22
-57 -65 -21 -36 -41 -67 -45 -69 -3 -2 -24 27 -46 65 -25 44 -46 69 -57 69
-10 0 -18 -2 -18 -4z"/>
<path d="M7822 424 c-29 -81 -50 -149 -48 -152 13 -12 33 10 45 47 l12 41 63
0 63 0 12 -41 c11 -36 34 -59 46 -47 3 3 -19 69 -49 149 -72 194 -75 194 -144
3z m114 -10 c6 -23 4 -24 -44 -24 l-50 0 19 53 c11 28 22 59 25 67 6 15 37
-45 50 -96z"/>
<path d="M8140 420 c0 -127 2 -150 15 -150 13 0 15 23 15 150 0 127 -2 150
-15 150 -13 0 -15 -23 -15 -150z"/>
<path d="M8680 419 l0 -152 69 6 c38 3 83 13 99 21 60 31 82 147 42 214 -26
42 -73 62 -150 62 l-60 0 0 -151z m149 106 c58 -30 68 -142 17 -193 -21 -21
-35 -26 -78 -27 l-53 0 -3 118 -3 117 46 0 c25 0 59 -7 74 -15z"/>
<path d="M9050 421 c0 -128 2 -151 15 -151 12 0 15 13 15 60 l0 60 38 0 c35 0
39 -3 66 -56 28 -53 49 -74 63 -61 3 3 -9 31 -26 61 l-31 55 25 25 c31 31 34
93 6 127 -16 20 -30 24 -95 27 l-76 4 0 -151z m142 102 c22 -20 23 -61 1 -85
-11 -13 -30 -18 -65 -18 l-48 0 0 60 0 60 47 0 c29 0 53 -6 65 -17z"/>
<path d="M9380 420 c0 -127 2 -150 15 -150 13 0 15 23 15 150 0 127 -2 150
-15 150 -13 0 -15 -23 -15 -150z"/>
<path d="M9530 568 c0 -2 25 -68 54 -148 41 -111 58 -145 71 -145 14 0 30 34
71 144 30 80 52 146 49 149 -15 15 -36 -19 -68 -114 -21 -60 -41 -115 -46
-122 -5 -9 -22 25 -50 103 -22 64 -41 121 -41 126 0 5 -9 9 -20 9 -11 0 -20
-1 -20 -2z"/>
<path d="M9900 420 l0 -150 90 0 c72 0 90 3 90 15 0 11 -17 15 -72 17 l-73 3
-3 53 -3 52 70 0 c56 0 71 3 71 15 0 12 -14 15 -70 15 l-70 0 0 50 0 50 75 0
c60 0 75 3 75 15 0 12 -17 15 -90 15 l-90 0 0 -150z"/>
<path d="M10220 420 c0 -127 2 -150 15 -150 12 0 15 20 15 117 0 89 3 114 12
105 6 -6 44 -57 83 -114 102 -146 105 -144 105 41 0 128 -2 151 -15 151 -12 0
-15 -19 -15 -115 0 -63 -3 -115 -7 -115 -5 1 -43 52 -86 115 -43 63 -84 115
-92 115 -13 0 -15 -25 -15 -150z"/>
<path d="M10770 420 l0 -153 82 6 c73 5 85 8 105 32 13 14 23 36 23 48 0 29
-27 67 -47 67 -12 0 -8 7 12 26 23 21 26 31 21 57 -10 52 -28 61 -116 65 l-80
4 0 -152z m156 95 c15 -23 15 -27 0 -50 -14 -21 -24 -25 -66 -25 l-50 0 0 50
0 50 50 0 c42 0 52 -4 66 -25z m4 -125 c43 -43 15 -81 -64 -88 l-56 -4 0 56 0
56 50 0 c37 0 55 -5 70 -20z"/>
<path d="M11101 548 c7 -13 29 -50 51 -84 34 -55 38 -68 38 -128 0 -59 2 -66
20 -66 18 0 20 7 20 67 0 61 4 72 44 137 23 39 46 77 50 84 5 8 1 12 -12 12
-13 0 -31 -22 -58 -70 -21 -38 -41 -70 -44 -70 -3 0 -23 32 -45 70 -26 45 -46
70 -58 70 -15 0 -16 -3 -6 -22z"/>
<path d="M11620 555 c0 -11 12 -15 45 -15 l45 0 0 -135 c0 -113 2 -135 15
-135 13 0 15 22 15 135 l0 135 50 0 c38 0 50 4 50 15 0 12 -19 15 -110 15 -91
0 -110 -3 -110 -15z"/>
<path d="M11970 421 c0 -128 2 -151 15 -151 12 0 15 13 15 60 l0 60 38 0 c35 0
39 -3 70 -60 22 -39 40 -60 52 -60 16 0 14 7 -15 61 l-33 62 25 22 c20 17
26 31 26 64 0 66 -25 85 -118 89 l-75 4 0 -151z m144 103 c9 -8 16 -28 16 -44
0 -42 -24 -60 -81 -60 l-49 0 0 60 0 60 49 0 c32 0 55 -6 65 -16z"/>
<path d="M12300 460 c0 -126 11 -160 60 -180 44 -18 108 -7 139 24 25 25 26
33 29 146 4 116 3 120 -17 120 -20 0 -21 -5 -21 -115 0 -105 -2 -116 -22 -135
-31 -28 -83 -26 -113 5 -24 23 -25 31 -25 135 0 91 -3 110 -15 110 -12 0 -15
-19 -15 -110z"/>
<path d="M12660 555 c0 -11 12 -15 45 -15 l45 0 0 -135 c0 -113 2 -135 15
-135 13 0 15 22 15 135 l0 135 50 0 c38 0 50 4 50 15 0 12 -19 15 -110 15 -91
0 -110 -3 -110 -15z"/>
<path d="M13010 420 c0 -127 2 -150 15 -150 12 0 15 14 15 70 l0 70 80 0 80 0
0 -70 c0 -56 3 -70 15 -70 13 0 15 23 15 150 0 127 -2 150 -15 150 -12 0 -15
-14 -15 -65 l0 -65 -80 0 -80 0 0 65 c0 51 -3 65 -15 65 -13 0 -15 -23 -15
-150z"/>
<path d="M8316 283 c-14 -50 -18 -93 -7 -93 12 0 24 26 36 78 5 25 3 32 -9 32
-8 0 -17 -8 -20 -17z"/>
</g>
</svg>