<svg width="160" height="160" viewBox="0 0 160 160" fill="none" xmlns="http://www.w3.org/2000/svg">
  <rect width="160" height="160" rx="36" fill="url(#paint0_linear)"/>
  <g filter="url(#filter0_d)">
    <circle cx="80" cy="66" r="28" fill="#0f172a" fill-opacity="0.8"/>
  </g>
  <path d="M80 54C86.6274 54 92 59.3726 92 66C92 72.6274 86.6274 78 80 78C73.3726 78 68 72.6274 68 66C68 59.3726 73.3726 54 80 54Z" fill="#1f2937"/>
  <path d="M48 120C48 101.909 62.9086 87 81 87H79C97.0914 87 112 101.909 112 120V128H48V120Z" fill="#0f172a" fill-opacity="0.82"/>
  <ellipse cx="60" cy="108" rx="12" ry="8" fill="#38bdf8" fill-opacity="0.6"/>
  <ellipse cx="100" cy="108" rx="12" ry="8" fill="#22d3ee" fill-opacity="0.6"/>
  <path d="M66 122C72 131 87 134 94 122" stroke="#38bdf8" stroke-width="4" stroke-linecap="round"/>
  <defs>
    <filter id="filter0_d" x="32" y="30" width="96" height="96" filterUnits="userSpaceOnUse" color-interpolation-filters="sRGB">
      <feFlood flood-opacity="0" result="BackgroundImageFix"/>
      <feBlend mode="normal" in="SourceGraphic" in2="BackgroundImageFix" result="shape"/>
      <feGaussianBlur stdDeviation="8" result="effect1_foregroundBlur"/>
    </filter>
    <linearGradient id="paint0_linear" x1="30" y1="28" x2="140" y2="140" gradientUnits="userSpaceOnUse">
      <stop stop-color="#bae6fd"/>
      <stop offset="1" stop-color="#e0f2fe"/>
    </linearGradient>
  </defs>
</svg>
