<svg width="160" height="160" viewBox="0 0 160 160" fill="none" xmlns="http://www.w3.org/2000/svg">
  <rect width="160" height="160" rx="36" fill="url(#paint0_linear)"/>
  <g filter="url(#filter0_d)">
    <rect x="40" y="32" width="80" height="96" rx="18" fill="#ffffff" fill-opacity="0.95"/>
  </g>
  <rect x="52" y="50" width="28" height="8" rx="4" fill="#1d4ed8" fill-opacity="0.6"/>
  <rect x="52" y="68" width="56" height="6" rx="3" fill="#1e293b" fill-opacity="0.35"/>
  <rect x="52" y="82" width="44" height="6" rx="3" fill="#1e293b" fill-opacity="0.25"/>
  <rect x="52" y="112" width="40" height="10" rx="5" fill="#22c55e" fill-opacity="0.85"/>
  <path d="M120 108C120 119.046 111.046 128 100 128C88.9543 128 80 119.046 80 108C80 96.9543 88.9543 88 100 88C111.046 88 120 96.9543 120 108Z" fill="#2563eb" fill-opacity="0.9"/>
  <path d="M95.5 107.2L99.6 111.3L105.9 103.5" stroke="white" stroke-width="5" stroke-linecap="round" stroke-linejoin="round"/>
  <defs>
    <filter id="filter0_d" x="16" y="24" width="128" height="144" filterUnits="userSpaceOnUse" color-interpolation-filters="sRGB">
      <feFlood flood-opacity="0" result="BackgroundImageFix"/>
      <feBlend mode="normal" in="SourceGraphic" in2="BackgroundImageFix" result="shape"/>
      <feGaussianBlur stdDeviation="9" result="effect1_foregroundBlur"/>
    </filter>
    <linearGradient id="paint0_linear" x1="24" y1="24" x2="140" y2="140" gradientUnits="userSpaceOnUse">
      <stop stop-color="#e0f2fe"/>
      <stop offset="1" stop-color="#dbeafe"/>
    </linearGradient>
  </defs>
</svg>
